<svg width="134" height="21" viewBox="0 0 134 21" fill="none" xmlns="http://www.w3.org/2000/svg">
<g id="logo" clip-path="url(#clip0_603_3349)">
<g id="CupfeeDeal">
<path id="Vector" d="M132.007 16.8351C129.535 16.8351 128.088 15.4321 128.088 12.9602V0.155334H130.872V12.7598C130.872 13.9178 131.428 14.5413 132.542 14.5413C132.92 14.5413 133.321 14.43 133.544 14.3186L133.677 16.5456C133.143 16.746 132.564 16.8351 132.007 16.8351Z" fill="#191F28"/>
<path id="Vector_2" d="M123 4.78858H125.784V16.6804H123.134V15.1438C122.199 16.2796 120.818 16.8363 119.192 16.8363C115.718 16.8363 113.18 14.4312 113.18 10.7345C113.18 7.03779 115.718 4.65497 119.192 4.65497C120.707 4.65497 122.043 5.16716 123 6.23609V4.78858ZM119.504 14.4535C121.531 14.4535 123.045 13.006 123.045 10.7345C123.045 8.46303 121.531 7.01552 119.504 7.01552C117.5 7.01552 115.986 8.46303 115.986 10.7345C115.986 13.006 117.5 14.4535 119.504 14.4535Z" fill="#191F28"/>
<path id="Vector_3" d="M106.652 14.4757C107.989 14.4757 109.013 14.0526 109.881 13.1841L111.351 14.8989C110.305 16.1682 108.634 16.8363 106.586 16.8363C102.599 16.8363 100.016 14.2753 100.016 10.7345C100.016 7.19367 102.599 4.65497 106.14 4.65497C109.458 4.65497 112.131 6.8819 112.153 10.6009L103.045 12.3824C103.624 13.7409 104.915 14.4757 106.652 14.4757ZM106.14 6.8819C104.114 6.8819 102.711 8.30714 102.711 10.5786V10.6009L109.436 9.30926C109.057 7.86175 107.81 6.8819 106.14 6.8819Z" fill="#191F28"/>
<path id="Vector_4" d="M83.3994 16.6792V1.09061H90.2138C95.269 1.09061 98.7207 4.20832 98.7207 8.88488C98.7207 13.5614 95.269 16.6792 90.2138 16.6792H83.3994ZM86.2944 14.2295H90.0802C93.5542 14.2295 95.8034 12.1139 95.8034 8.88488C95.8034 5.65582 93.5542 3.54024 90.0802 3.54024H86.2944V14.2295Z" fill="#191F28"/>
<path id="Vector_5" d="M71.211 14.4757C72.5471 14.4757 73.5715 14.0526 74.44 13.1841L75.9098 14.8989C74.8631 16.1682 73.1929 16.8363 71.1442 16.8363C67.158 16.8363 64.5747 14.2753 64.5747 10.7345C64.5747 7.19367 67.158 4.65497 70.6988 4.65497C74.0169 4.65497 76.6892 6.8819 76.7115 10.6009L67.6033 12.3824C68.1823 13.7409 69.474 14.4757 71.211 14.4757ZM70.6988 6.8819C68.6723 6.8819 67.2693 8.30714 67.2693 10.5786V10.6009L73.9946 9.30926C73.6161 7.86175 72.369 6.8819 70.6988 6.8819Z" fill="#191F28"/>
<path id="Vector_6" d="M57.9151 14.4757C59.2512 14.4757 60.2756 14.0526 61.1441 13.1841L62.6139 14.8989C61.5672 16.1682 59.897 16.8363 57.8483 16.8363C53.8621 16.8363 51.2788 14.2753 51.2788 10.7345C51.2788 7.19367 53.8621 4.65497 57.4029 4.65497C60.721 4.65497 63.3933 6.8819 63.4156 10.6009L54.3074 12.3824C54.8864 13.7409 56.1781 14.4757 57.9151 14.4757ZM57.4029 6.8819C55.3764 6.8819 53.9734 8.30714 53.9734 10.5786V10.6009L60.6987 9.30926C60.3202 7.86175 59.0731 6.8819 57.4029 6.8819Z" fill="#191F28"/>
<path id="Vector_7" d="M48.9239 2.2492C47.7659 2.2492 47.1646 2.89502 47.1646 4.16437V4.87699H50.4382V7.10392H47.2314V16.6797H44.4478V4.11983C44.4478 1.62566 45.9621 0 48.7235 0C49.6811 0 50.5941 0.200424 51.2176 0.645811L50.4382 2.73913C50.0374 2.44963 49.5029 2.2492 48.9239 2.2492Z" fill="#191F28"/>
<path id="Vector_8" d="M36.3095 4.65497C39.7835 4.65497 42.3445 7.06006 42.3445 10.7345C42.3445 14.4312 39.7835 16.8363 36.3095 16.8363C34.7952 16.8363 33.459 16.3241 32.5014 15.2329V21.0007H29.7178V4.78858H32.3678V6.34744C33.3031 5.2117 34.6838 4.65497 36.3095 4.65497ZM35.9977 14.4535C38.002 14.4535 39.5163 13.006 39.5163 10.7345C39.5163 8.46303 38.002 7.01552 35.9977 7.01552C33.9935 7.01552 32.4569 8.46303 32.4569 10.7345C32.4569 13.006 33.9935 14.4535 35.9977 14.4535Z" fill="#191F28"/>
<path id="Vector_9" d="M24.494 4.78714H27.2776V16.679H24.6276V15.1647C23.7368 16.2559 22.3338 16.8349 20.7972 16.8349C17.7463 16.8349 15.6753 15.1647 15.6753 11.5793V4.78714H18.459V11.2007C18.459 13.3608 19.4833 14.3852 21.2426 14.3852C23.1801 14.3852 24.494 13.1827 24.494 10.7999V4.78714Z" fill="#191F28"/>
<path id="Vector_10" d="M8.32874 16.9031C3.5631 16.9031 0 13.5405 0 8.88617C0 4.23187 3.5631 0.869202 8.35101 0.869202C10.8897 0.869202 13.0721 1.78225 14.5196 3.47471L12.649 5.23399C11.5133 4.00918 10.1103 3.40791 8.48462 3.40791C5.25557 3.40791 2.91728 5.67938 2.91728 8.88617C2.91728 12.093 5.25557 14.3644 8.48462 14.3644C10.1103 14.3644 11.5133 13.7632 12.649 12.5161L14.5196 14.2976C13.0721 15.9901 10.8897 16.9031 8.32874 16.9031Z" fill="#191F28"/>
</g>
</g>
<defs>
<clipPath id="clip0_603_3349">
<rect width="134" height="21" fill="white"/>
</clipPath>
</defs>
</svg>
