<svg width="50" height="50" viewBox="0 0 50 50" fill="none" xmlns="http://www.w3.org/2000/svg">
<rect x="1" y="1" width="48" height="48" rx="24" fill="white"/>
<rect x="1" y="1" width="48" height="48" rx="24" stroke="#AAD2FF"/>
<path d="M29.8488 21.7371L25.698 13.8151C25.4692 13.3784 24.844 13.3784 24.6152 13.8151L20.9539 20.8028C20.7359 21.2188 20.1497 21.2438 19.8972 20.8479L15.364 13.7412C15.102 13.3303 14.488 13.3764 14.2902 13.8217L10.7739 21.7371C8.90384 26.9693 8.2238 37.474 20.4644 37.635C35.7651 37.8363 31.277 24.2526 35.0512 21.7371C38.8253 19.2215 42.3955 24.3532 39.3354 27.573" stroke="#1B7BE8" stroke-width="2.30142" stroke-linecap="round"/>
<path fill-rule="evenodd" clip-rule="evenodd" d="M17.8166 32.6146C19.2329 33.7641 21.6995 33.0714 23.326 31.0675C24.9524 29.0636 25.1228 26.5072 23.7065 25.3577C22.2901 24.2081 19.8235 24.9008 18.1971 26.9047C16.5706 28.9087 16.4003 31.465 17.8166 32.6146ZM18.7622 31.2613C19.127 29.9495 20.3985 27.7537 22.5675 26.6422C22.6245 26.613 22.6853 26.6686 22.6594 26.7271C22.0875 28.0186 20.4661 30.4006 18.8589 31.3357C18.8067 31.3661 18.746 31.3195 18.7622 31.2613Z" fill="#1B7BE8"/>
</svg>
